<svg id="a90e4325-8468-491e-b2dc-c1e18f866010" data-name="Capa 1" xmlns="http://www.w3.org/2000/svg" viewBox="0 0 447.67 579"><defs><style>.ad3a421a-c9bd-4b88-bef7-0e98b7bdb210{opacity:0.2;}.e5107ae5-88b0-4393-bff7-9729906b1f7d{fill:#ea496a;}.e11c32fe-838d-46be-a25f-631d76711a63{fill:#20f1c4;}.aac6436b-7b52-4998-a19c-8cfeea070927{fill:#fff;}</style></defs><g class="ad3a421a-c9bd-4b88-bef7-0e98b7bdb210"><path class="e5107ae5-88b0-4393-bff7-9729906b1f7d" d="M373.2,411.47,31.87,70.14a10.66,10.66,0,0,0-18.2,7.53V568.34a10.66,10.66,0,0,0,6.76,9.92,10.37,10.37,0,0,0,3.91.75,10.61,10.61,0,0,0,7.8-3.42L167.65,429.67h198a10.66,10.66,0,0,0,7.53-18.2Z" transform="translate(-13.67 0)"/></g><path class="e11c32fe-838d-46be-a25f-631d76711a63" d="M458.2,344.47,116.87,3.14a10.66,10.66,0,0,0-18.2,7.53V501.34a10.66,10.66,0,0,0,6.76,9.92,10.37,10.37,0,0,0,3.91.75,10.61,10.61,0,0,0,7.8-3.42L252.65,362.67h198a10.66,10.66,0,0,0,7.53-18.2Z" transform="translate(-13.67 0)"/><path class="aac6436b-7b52-4998-a19c-8cfeea070927" d="M434.2,344.47,92.87,3.14a10.66,10.66,0,0,0-18.2,7.53V501.34a10.66,10.66,0,0,0,6.76,9.92,10.37,10.37,0,0,0,3.91.75,10.61,10.61,0,0,0,7.8-3.42L228.65,362.67h198a10.66,10.66,0,0,0,7.53-18.2Z" transform="translate(-13.67 0)"/></svg>