<?xml version="1.0" encoding="utf-8"?>
<!-- Generator: Adobe Illustrator 25.1.0, SVG Export Plug-In . SVG Version: 6.00 Build 0)  -->
<svg version="1.1" id="f6f47cde-1745-42b3-bf19-bff146ebb438"
	 xmlns="http://www.w3.org/2000/svg" xmlns:xlink="http://www.w3.org/1999/xlink" x="0px" y="0px" viewBox="0 0 56 76"
	 style="enable-background:new 0 0 56 76;" xml:space="preserve">
<style type="text/css">
	.st0{fill:#FF6A2F;}
	.st1{fill:#FFFFFF;}
</style>
<path class="st0" d="M54,22v52H2V22H54 M56,20H0v56h56V20z"/>
<path class="st0" d="M17.9,47.8c1,0,2.1,0.1,3.1,0.4c0.8,0.2,1.7,0.6,2.4,1c0.6,0.4,1.1,0.8,1.7,1.2c0.4,0.3,0.7,0.6,1,1l0.3,0.4
	L24.3,54c-0.1-0.1-0.1-0.2-0.3-0.3c-0.2-0.3-0.5-0.5-0.8-0.8c-0.4-0.4-0.8-0.7-1.3-1c-0.6-0.3-1.2-0.6-1.8-0.8
	c-0.8-0.2-1.5-0.3-2.3-0.3c-4.3,0-7.8,3.4-7.8,7.7c0,0,0,0.1,0,0.1c0,4.3,3.4,7.8,7.6,7.8c0.1,0,0.1,0,0.2,0c0.8,0,1.6-0.1,2.4-0.3
	c0.7-0.2,1.3-0.5,1.9-0.8c0.5-0.3,0.9-0.6,1.3-1c0.3-0.2,0.6-0.5,0.8-0.8l0.2-0.4l2.1,2.1c-0.1,0.2-0.2,0.3-0.4,0.5
	c-0.3,0.4-0.7,0.7-1.1,1c-0.5,0.5-1.1,1-1.8,1.4c-0.8,0.4-1.6,0.8-2.4,1c-1,0.3-2,0.5-3.1,0.4c-3,0.1-5.8-1.1-7.9-3.2
	c-2.1-2-3.3-4.8-3.2-7.7c0-2.9,1.1-5.7,3.2-7.7C12.1,48.9,14.9,47.7,17.9,47.8z"/>
<path class="st0" d="M36.9,69.1l-8.3-21h3.4l6.5,16.8L45,48.1h3.4l-8.2,21L36.9,69.1z"/>
<path class="st1" d="M8,37.1h40v2.9H8V37.1z"/>
<path class="st1" d="M40.8,18.5l-2-2l-9.4,9.4V0h-2.9v25.9l-9.4-9.4l-2,2L28,31.4L40.8,18.5z"/>
</svg>
