<svg id="f6f47cde-1745-42b3-bf19-bff146ebb438" data-name="Слой 1" xmlns="http://www.w3.org/2000/svg" viewBox="0 0 56 76"><defs><style>.a7b67a46-e8b6-4324-872a-717e2c6f63c0{fill:#ea496a;}.fc26a857-42d3-4732-af5b-e383894017d0{fill:#fff;}</style></defs><path class="a7b67a46-e8b6-4324-872a-717e2c6f63c0" d="M54,2V54H2V2H54m2-2H0V56H56V0Z" transform="translate(0 20)"/><path class="a7b67a46-e8b6-4324-872a-717e2c6f63c0" d="M17.88,27.81a11.1,11.1,0,0,1,3.07.42,9.27,9.27,0,0,1,2.42,1,16.73,16.73,0,0,1,1.68,1.19,6.9,6.9,0,0,1,1.05,1l.32.41L24.33,34c-.06-.08-.14-.19-.26-.33a8.73,8.73,0,0,0-.77-.77,7.45,7.45,0,0,0-1.29-1,8.38,8.38,0,0,0-1.79-.75,8.17,8.17,0,0,0-2.34-.34,7.73,7.73,0,0,0-7.8,7.79,7.73,7.73,0,0,0,7.8,7.81,7.9,7.9,0,0,0,2.35-.34,7.59,7.59,0,0,0,1.87-.83,13.31,13.31,0,0,0,1.3-1,7.46,7.46,0,0,0,.84-.81l.24-.37,2.1,2.11a3.74,3.74,0,0,1-.35.46,12.28,12.28,0,0,1-1.07,1A12.73,12.73,0,0,1,23.4,48,10.94,10.94,0,0,1,21,49a10.7,10.7,0,0,1-3.09.45A10.86,10.86,0,0,1,10,46.26,10.31,10.31,0,0,1,6.78,38.6,10.33,10.33,0,0,1,10,30.94,10.85,10.85,0,0,1,17.88,27.81Z" transform="translate(0 20)"/><path class="a7b67a46-e8b6-4324-872a-717e2c6f63c0" d="M36.93,49.11l-8.26-21h3.45l6.45,16.8L45,28.1h3.44l-8.25,21Z" transform="translate(0 20)"/><path class="fc26a857-42d3-4732-af5b-e383894017d0" d="M8,17.08H48v2.86H8Z" transform="translate(0 20)"/><path class="fc26a857-42d3-4732-af5b-e383894017d0" d="M40.83-1.46l-2-2-9.4,9.4V-20H26.57V5.92l-9.4-9.4-2,2L28,11.38Z" transform="translate(0 20)"/></svg>