<svg id="a816be54-4b30-42dd-ba08-158f49900f95" data-name="Слой 1" xmlns="http://www.w3.org/2000/svg" viewBox="0 0 56 56"><defs><style>.a9088612-d5c4-490f-81e1-9686d8afa4da{fill:#ea496a;}</style></defs><title>github</title><path class="a9088612-d5c4-490f-81e1-9686d8afa4da" d="M28,2A26,26,0,1,1,2,28,26,26,0,0,1,28,2m0-2h0A28,28,0,0,0,0,28H0A28,28,0,0,0,28,56h0A28,28,0,0,0,56,28h0A28,28,0,0,0,28,0Z"/><path class="a9088612-d5c4-490f-81e1-9686d8afa4da" d="M28,14.17a14.19,14.19,0,0,0-4.46,27.64c.7.13,1-.31,1-.68s0-1.23,0-2.42c-3.93.86-4.76-1.9-4.76-1.9a3.7,3.7,0,0,0-1.57-2.07c-1.28-.88.1-.87.1-.87a3,3,0,0,1,2.16,1.47,3,3,0,0,0,4.11,1.17,3.05,3.05,0,0,1,.9-1.89C22.29,34.26,19,33,19,27.61a5.51,5.51,0,0,1,1.45-3.81,5.08,5.08,0,0,1,.14-3.75s1.19-.38,3.88,1.45a13.57,13.57,0,0,1,7.08,0c2.7-1.83,3.88-1.45,3.88-1.45a5.08,5.08,0,0,1,.14,3.75A5.49,5.49,0,0,1,37,27.61c0,5.45-3.3,6.65-6.45,7a3.38,3.38,0,0,1,1,2.63c0,1.89,0,3.42,0,3.89s.25.82,1,.68A14.19,14.19,0,0,0,28,14.17Z"/></svg>