<?xml version="1.0" encoding="utf-8"?>
<!-- Generator: Adobe Illustrator 25.1.0, SVG Export Plug-In . SVG Version: 6.00 Build 0)  -->
<svg version="1.1" id="a816be54-4b30-42dd-ba08-158f49900f95"
	 xmlns="http://www.w3.org/2000/svg" xmlns:xlink="http://www.w3.org/1999/xlink" x="0px" y="0px" viewBox="0 0 56 56"
	 style="enable-background:new 0 0 56 56;" xml:space="preserve">
<style type="text/css">
	.st0{fill:#FF6A2F;}
</style>
<path class="st0" d="M28,2c14.4,0,26,11.6,26,26S42.4,54,28,54S2,42.4,2,28S13.6,2,28,2 M28,0L28,0C12.5,0,0,12.5,0,28l0,0
	c0,15.5,12.5,28,28,28l0,0c15.5,0,28-12.5,28-28l0,0C56,12.5,43.5,0,28,0z"/>
<path class="st0" d="M28,14.2c-7.8,0-14.2,6.4-14.1,14.3c0,6.1,3.9,11.5,9.7,13.4c0.7,0.1,1-0.3,1-0.7s0-1.2,0-2.4
	c-3.9,0.9-4.8-1.9-4.8-1.9c-0.3-0.9-0.8-1.6-1.6-2.1c-1.3-0.9,0.1-0.9,0.1-0.9c0.9,0.1,1.7,0.7,2.2,1.5c0.8,1.5,2.6,2,4.1,1.2
	c0,0,0,0,0,0c0.1-0.7,0.4-1.4,0.9-1.9c-3.2-0.4-6.5-1.6-6.5-7c0-1.4,0.5-2.8,1.5-3.8c-0.4-1.2-0.4-2.6,0.1-3.8c0,0,1.2-0.4,3.9,1.5
	c2.3-0.6,4.8-0.6,7.1,0c2.7-1.8,3.9-1.5,3.9-1.5c0.5,1.2,0.6,2.5,0.1,3.8c0.9,1,1.5,2.4,1.4,3.8c0,5.5-3.3,6.7-6.5,7
	c0.7,0.7,1.1,1.6,1,2.6c0,1.9,0,3.4,0,3.9s0.2,0.8,1,0.7c7.4-2.5,11.4-10.5,8.9-18C39.5,18.1,34.1,14.2,28,14.2z"/>
</svg>
