<svg id="f7e8a03b-8bdf-43d3-913b-6726e04229cf" data-name="Слой 1" xmlns="http://www.w3.org/2000/svg" viewBox="0 0 56 56"><defs><style>.afc196f3-d9b8-45f8-bdf8-6264d7aefd2e{fill:#ea496a;}</style></defs><path class="afc196f3-d9b8-45f8-bdf8-6264d7aefd2e" d="M28,2A26,26,0,1,1,2,28,26,26,0,0,1,28,2m0-2h0A28,28,0,0,0,0,28H0A28,28,0,0,0,28,56h0A28,28,0,0,0,56,28h0A28,28,0,0,0,28,0Z"/><path class="afc196f3-d9b8-45f8-bdf8-6264d7aefd2e" d="M41.91,22.24a10.43,10.43,0,0,0-.65-3.39,7,7,0,0,0-1.62-2.48,6.9,6.9,0,0,0-2.48-1.61,9.93,9.93,0,0,0-3.39-.65C32.28,14,31.8,14,28,14s-4.28,0-5.77.08a10.49,10.49,0,0,0-3.39.65,6.84,6.84,0,0,0-2.48,1.62,7,7,0,0,0-1.61,2.47,10.5,10.5,0,0,0-.65,3.4C14,23.73,14,24.21,14,28s0,4.27.09,5.76a10,10,0,0,0,.65,3.4,6.82,6.82,0,0,0,1.61,2.48,6.9,6.9,0,0,0,2.48,1.61,10.43,10.43,0,0,0,3.39.65c1.49.06,2,.08,5.76.08s4.27,0,5.76-.08a10.38,10.38,0,0,0,3.39-.65,7.13,7.13,0,0,0,4.09-4.09,10,10,0,0,0,.65-3.4C42,32.27,42,31.8,42,28S42,23.73,41.91,22.24ZM39.39,33.66a7.68,7.68,0,0,1-.48,2.59,4.63,4.63,0,0,1-2.66,2.65,7.43,7.43,0,0,1-2.59.48c-1.48.07-1.92.09-5.65.09s-4.18,0-5.65-.09a7.43,7.43,0,0,1-2.59-.48,4.18,4.18,0,0,1-1.61-1,4.34,4.34,0,0,1-1-1.6,7.82,7.82,0,0,1-.48-2.6c-.07-1.47-.08-1.92-.08-5.65s0-4.17.08-5.64a7.7,7.7,0,0,1,.48-2.6,4.17,4.17,0,0,1,1.05-1.6,4.37,4.37,0,0,1,1.6-1.05,7.82,7.82,0,0,1,2.6-.48c1.47-.06,1.92-.08,5.65-.08s4.17,0,5.64.08a7.7,7.7,0,0,1,2.6.48,4.29,4.29,0,0,1,1.6,1.05,4.37,4.37,0,0,1,1,1.6,7.76,7.76,0,0,1,.48,2.6c.06,1.47.08,1.91.08,5.64S39.45,32.18,39.39,33.66Z"/><path class="afc196f3-d9b8-45f8-bdf8-6264d7aefd2e" d="M28,20.82A7.18,7.18,0,1,0,35.19,28,7.19,7.19,0,0,0,28,20.82Zm0,11.84A4.66,4.66,0,1,1,32.66,28,4.65,4.65,0,0,1,28,32.66Z"/><path class="afc196f3-d9b8-45f8-bdf8-6264d7aefd2e" d="M37.15,20.54a1.68,1.68,0,1,1-1.68-1.68A1.68,1.68,0,0,1,37.15,20.54Z"/></svg>