<?xml version="1.0" encoding="utf-8"?>
<!-- Generator: Adobe Illustrator 25.1.0, SVG Export Plug-In . SVG Version: 6.00 Build 0)  -->
<svg version="1.1" id="f7e8a03b-8bdf-43d3-913b-6726e04229cf"
	 xmlns="http://www.w3.org/2000/svg" xmlns:xlink="http://www.w3.org/1999/xlink" x="0px" y="0px" viewBox="0 0 56 56"
	 style="enable-background:new 0 0 56 56;" xml:space="preserve">
<style type="text/css">
	.st0{fill:#FF6A2F;}
</style>
<path class="st0" d="M28,2c14.4,0,26,11.6,26,26S42.4,54,28,54S2,42.4,2,28S13.6,2,28,2 M28,0L28,0C12.5,0,0,12.5,0,28l0,0
	c0,15.5,12.5,28,28,28l0,0c15.5,0,28-12.5,28-28l0,0C56,12.5,43.5,0,28,0z"/>
<path class="st0" d="M41.9,22.2c0-1.2-0.2-2.3-0.7-3.4c-0.4-0.9-0.9-1.8-1.6-2.5c-0.7-0.7-1.5-1.3-2.5-1.6c-1.1-0.4-2.2-0.6-3.4-0.6
	C32.3,14,31.8,14,28,14s-4.3,0-5.8,0.1c-1.2,0-2.3,0.2-3.4,0.6c-0.9,0.4-1.8,0.9-2.5,1.6c-0.7,0.7-1.3,1.5-1.6,2.5
	c-0.4,1.1-0.6,2.2-0.6,3.4C14,23.7,14,24.2,14,28s0,4.3,0.1,5.8c0,1.2,0.2,2.3,0.6,3.4c0.3,0.9,0.9,1.8,1.6,2.5
	c0.7,0.7,1.5,1.3,2.5,1.6c1.1,0.4,2.2,0.6,3.4,0.7c1.5,0.1,2,0.1,5.8,0.1s4.3,0,5.8-0.1c1.2,0,2.3-0.2,3.4-0.7
	c1.9-0.7,3.4-2.2,4.1-4.1c0.4-1.1,0.6-2.2,0.7-3.4c0.1-1.5,0.1-2,0.1-5.8S42,23.7,41.9,22.2z M39.4,33.7c0,0.9-0.2,1.8-0.5,2.6
	c-0.5,1.2-1.4,2.2-2.7,2.7c-0.8,0.3-1.7,0.5-2.6,0.5c-1.5,0.1-1.9,0.1-5.6,0.1s-4.2,0-5.6-0.1c-0.9,0-1.8-0.2-2.6-0.5
	c-0.6-0.2-1.2-0.5-1.6-1c-0.4-0.5-0.8-1-1-1.6c-0.3-0.8-0.5-1.7-0.5-2.6c-0.1-1.5-0.1-1.9-0.1-5.6s0-4.2,0.1-5.6
	c0-0.9,0.2-1.8,0.5-2.6c0.2-0.6,0.6-1.2,1-1.6c0.4-0.5,1-0.8,1.6-1c0.8-0.3,1.7-0.5,2.6-0.5c1.5-0.1,1.9-0.1,5.6-0.1s4.2,0,5.6,0.1
	c0.9,0,1.8,0.2,2.6,0.5c0.6,0.2,1.2,0.6,1.6,1c0.4,0.5,0.8,1,1,1.6c0.3,0.8,0.5,1.7,0.5,2.6c0.1,1.5,0.1,1.9,0.1,5.6
	S39.5,32.2,39.4,33.7z"/>
<path class="st0" d="M28,20.8c-4,0-7.2,3.2-7.2,7.2s3.2,7.2,7.2,7.2c4,0,7.2-3.2,7.2-7.2C35.2,24,32,20.8,28,20.8z M28,32.7
	c-2.6,0-4.7-2.1-4.7-4.7s2.1-4.7,4.7-4.7s4.7,2.1,4.7,4.7l0,0C32.7,30.6,30.6,32.7,28,32.7C28,32.7,28,32.7,28,32.7z"/>
<path class="st0" d="M37.2,20.5c0,0.9-0.8,1.7-1.7,1.7s-1.7-0.8-1.7-1.7c0-0.9,0.8-1.7,1.7-1.7S37.2,19.6,37.2,20.5L37.2,20.5z"/>
</svg>
