<?xml version="1.0" encoding="utf-8"?>
<!-- Generator: Adobe Illustrator 25.1.0, SVG Export Plug-In . SVG Version: 6.00 Build 0)  -->
<svg version="1.1" id="a1d65f7b-ebf6-43d5-8b82-16fe6b903ad5"
	 xmlns="http://www.w3.org/2000/svg" xmlns:xlink="http://www.w3.org/1999/xlink" x="0px" y="0px" viewBox="0 0 56 56"
	 style="enable-background:new 0 0 56 56;" xml:space="preserve">
<style type="text/css">
	.st0{fill:#FF6A2F;}
</style>
<path class="st0" d="M28,2c14.4,0,26,11.6,26,26S42.4,54,28,54S2,42.4,2,28S13.6,2,28,2 M28,0L28,0C12.5,0,0,12.5,0,28l0,0
	c0,15.5,12.5,28,28,28l0,0c15.5,0,28-12.5,28-28l0,0C56,12.5,43.5,0,28,0z"/>
<path class="st0" d="M40,40L40,40v-8.8c0-4.3-0.9-7.6-6-7.6c-1.9-0.1-3.7,0.9-4.7,2.6h-0.1V24h-4.7v16h5v-7.9c0-2.1,0.4-4.1,3-4.1
	s2.5,2.4,2.5,4.2V40H40z"/>
<path class="st0" d="M16.4,24h5v16h-5V24z"/>
<path class="st0" d="M18.9,16c-1.6,0-2.9,1.3-2.9,2.9c0,1.6,1.3,2.9,2.9,2.9c1.6,0,2.9-1.3,2.9-2.9c0,0,0,0,0,0
	C21.8,17.3,20.5,16,18.9,16L18.9,16z"/>
</svg>
