<svg id="a1d65f7b-ebf6-43d5-8b82-16fe6b903ad5" data-name="Слой 1" xmlns="http://www.w3.org/2000/svg" viewBox="0 0 56 56"><defs><style>.aea8d1da-b710-42da-a51e-4bdfb998e8a8{fill:#ea496a;}</style></defs><path class="aea8d1da-b710-42da-a51e-4bdfb998e8a8" d="M28,2A26,26,0,1,1,2,28,26,26,0,0,1,28,2m0-2h0A28,28,0,0,0,0,28H0A28,28,0,0,0,28,56h0A28,28,0,0,0,56,28h0A28,28,0,0,0,28,0Z"/><path class="aea8d1da-b710-42da-a51e-4bdfb998e8a8" d="M40,40h0V31.2c0-4.31-.93-7.63-6-7.63a5.23,5.23,0,0,0-4.71,2.59h-.07V24H24.49V40h5V32.06c0-2.08.39-4.1,3-4.1S35,30.34,35,32.2V40Z"/><path class="aea8d1da-b710-42da-a51e-4bdfb998e8a8" d="M16.4,24h5V40h-5Z"/><path class="aea8d1da-b710-42da-a51e-4bdfb998e8a8" d="M18.88,16a2.9,2.9,0,1,0,2.88,2.88A2.88,2.88,0,0,0,18.88,16Z"/></svg>