<?xml version="1.0" encoding="utf-8"?>
<!-- Generator: Adobe Illustrator 25.1.0, SVG Export Plug-In . SVG Version: 6.00 Build 0)  -->
<svg version="1.1" id="b9e74ddf-2328-4d73-b85e-3d87ee30633c"
	 xmlns="http://www.w3.org/2000/svg" xmlns:xlink="http://www.w3.org/1999/xlink" x="0px" y="0px" viewBox="0 0 56 56"
	 style="enable-background:new 0 0 56 56;" xml:space="preserve">
<style type="text/css">
	.st0{fill:#FF6A2F;}
</style>
<path class="st0" d="M28,2c14.4,0,26,11.6,26,26S42.4,54,28,54S2,42.4,2,28S13.6,2,28,2 M28,0L28,0C12.5,0,0,12.5,0,28l0,0
	c0,15.5,12.5,28,28,28l0,0c15.5,0,28-12.5,28-28l0,0C56,12.5,43.5,0,28,0z"/>
<path class="st0" d="M22.7,32.1l-0.5,7.1c0.6,0,1.1-0.2,1.4-0.7l3.4-3.3l7,5.2c1.3,0.7,2.2,0.3,2.5-1.2l4.6-21.7l0,0
	c0.4-1.9-0.7-2.7-2-2.2L12.1,25.8c-1.9,0.7-1.8,1.8-0.3,2.2l7,2.2l16.1-10.1c0.8-0.5,1.5-0.2,0.9,0.3L22.7,32.1z"/>
</svg>
