<svg id="b9e74ddf-2328-4d73-b85e-3d87ee30633c" data-name="Слой 1" xmlns="http://www.w3.org/2000/svg" viewBox="0 0 56 56"><defs><style>.ab8799b6-96cd-4ca2-949b-a85bda900a9e{fill:#ea496a;}</style></defs><path class="ab8799b6-96cd-4ca2-949b-a85bda900a9e" d="M28,2A26,26,0,1,1,2,28,26,26,0,0,1,28,2m0-2h0A28,28,0,0,0,0,28H0A28,28,0,0,0,28,56h0A28,28,0,0,0,56,28h0A28,28,0,0,0,28,0Z"/><path class="ab8799b6-96cd-4ca2-949b-a85bda900a9e" d="M22.7,32.06l-.5,7.13a1.77,1.77,0,0,0,1.41-.68L27,35.26l7.05,5.16c1.29.72,2.2.34,2.55-1.19l4.62-21.67h0c.41-1.91-.69-2.66-1.95-2.19L12.1,25.77c-1.85.73-1.83,1.76-.31,2.23l7,2.16,16.14-10.1c.76-.5,1.45-.23.88.28Z"/></svg>