<svg id="a45894e7-7ccc-4a08-b7b5-034c877281cd" data-name="Слой 1" xmlns="http://www.w3.org/2000/svg" viewBox="0 0 56 56"><defs><style>.a1a1b23e-296d-44f8-adff-b4476bc1c1c0{fill:#fff;}</style></defs><path class="a1a1b23e-296d-44f8-adff-b4476bc1c1c0" d="M53,3V53H3V3H53m3-3H0V56H56V0Z"/><path class="a1a1b23e-296d-44f8-adff-b4476bc1c1c0" d="M19,10h3.13V26.23c0,6.44-3.17,8.42-7.34,8.42a10.27,10.27,0,0,1-3.35-.57l.47-2.56A7.51,7.51,0,0,0,14.5,32C17.3,32,19,30.73,19,26Z"/><path class="a1a1b23e-296d-44f8-adff-b4476bc1c1c0" d="M30,21.32a30.14,30.14,0,0,1,5.72-.51c3.14,0,5.15.54,6.66,1.77a5.07,5.07,0,0,1,2,4.28,5.77,5.77,0,0,1-4.1,5.33v.07a6.25,6.25,0,0,1,5,6.08,6.54,6.54,0,0,1-2,4.86c-1.7,1.55-4.43,2.27-8.39,2.27A35.6,35.6,0,0,1,30,45.18Zm3.13,9.93H36c3.31,0,5.25-1.72,5.25-4.06,0-2.85-2.16-4-5.33-4a13.53,13.53,0,0,0-2.77.21Zm0,11.63a16.56,16.56,0,0,0,2.63.14C39,43,42,41.84,42,38.31c0-3.31-2.85-4.68-6.27-4.68H33.12Z"/></svg>